<svg xmlns="http://www.w3.org/2000/svg" xmlns:xlink="http://www.w3.org/1999/xlink" contentStyleType="text/css" data-diagram-type="CLASS" height="226px" preserveAspectRatio="none" style="width:604px;height:226px;background:#FFFFFF;" version="1.1" viewBox="0 0 604 226" width="604px" zoomAndPan="magnify"><?plantuml 1.2026.3beta6?><defs><filter height="300%" id="f16hafwydufvu2" width="300%" x="-1" y="-1"><feGaussianBlur result="blurOut" stdDeviation="2"/><feColorMatrix in="blurOut" result="blurOut2" type="matrix" values="0 0 0 0 0 0 0 0 0 0 0 0 0 0 0 0 0 0 .4 0"/><feOffset dx="4" dy="4" in="blurOut2" result="blurOut3"/><feBlend in="SourceGraphic" in2="blurOut3" mode="normal"/></filter></defs><g><g class="title" data-source-line="1"><text fill="#000000" font-family="sans-serif" font-size="14" font-weight="700" lengthAdjust="spacing" textLength="267.3262" x="165.1787" y="22.9951">Diagrama de Classes &#8212; Calculadora</text></g><!--class Calculadora--><g class="entity" data-qualified-name="Calculadora" data-source-line="7" id="ent0002"><rect fill="#F1F1F1" filter="url(#f16hafwydufvu2)" height="162.0781" rx="7.5" ry="7.5" style="stroke:#181818;stroke-width:0.5;" width="301.3857" x="7" y="44.2969"/><ellipse cx="111.9077" cy="60.2969" fill="#ADD1B2" rx="11" ry="11" style="stroke:#181818;stroke-width:1;"/><path d="M114.8765,65.9375 Q114.2983,66.2344 113.6577,66.375 Q113.0171,66.5313 112.314,66.5313 Q109.814,66.5313 108.4858,64.8906 Q107.1733,63.2344 107.1733,60.1094 Q107.1733,56.9844 108.4858,55.3281 Q109.814,53.6719 112.314,53.6719 Q113.0171,53.6719 113.6577,53.8281 Q114.314,53.9844 114.8765,54.2813 L114.8765,57 Q114.2515,56.4219 113.6577,56.1563 Q113.064,55.875 112.439,55.875 Q111.0952,55.875 110.4077,56.9531 Q109.7202,58.0156 109.7202,60.1094 Q109.7202,62.2031 110.4077,63.2813 Q111.0952,64.3438 112.439,64.3438 Q113.064,64.3438 113.6577,64.0781 Q114.2515,63.7969 114.8765,63.2188 L114.8765,65.9375 Z " fill="#000000"/><text fill="#000000" font-family="sans-serif" font-size="14" lengthAdjust="spacing" textLength="83.0703" x="132.4077" y="65.1436">Calculadora</text><line style="stroke:#181818;stroke-width:0.5;" x1="8" x2="307.3857" y1="76.2969" y2="76.2969"/><text fill="#000000" font-family="sans-serif" font-size="14" lengthAdjust="spacing" textLength="113.3467" x="13" y="93.292">-numero1 : float</text><text fill="#000000" font-family="sans-serif" font-size="14" lengthAdjust="spacing" textLength="113.3467" x="13" y="109.5889">-numero2 : float</text><line style="stroke:#181818;stroke-width:0.5;" x1="8" x2="307.3857" y1="116.8906" y2="116.8906"/><text fill="#000000" font-family="sans-serif" font-size="14" lengthAdjust="spacing" textLength="289.3857" x="13" y="133.8857">+__init__(numero1: float, numero2: float)</text><text fill="#000000" font-family="sans-serif" font-size="14" lengthAdjust="spacing" textLength="111.5557" x="13" y="150.1826">+somar() : float</text><text fill="#000000" font-family="sans-serif" font-size="14" lengthAdjust="spacing" textLength="122.2471" x="13" y="166.4795">+subtrair() : float</text><text fill="#000000" font-family="sans-serif" font-size="14" lengthAdjust="spacing" textLength="142.2012" x="13" y="182.7764">+multiplicar() : float</text><text fill="#000000" font-family="sans-serif" font-size="14" lengthAdjust="spacing" textLength="160.2959" x="13" y="199.0732">+dividir() : float | string</text></g><g class="entity" data-qualified-name="GMN3" data-source-line="19" id="ent0004"><path d="M343.71,82.4369 L343.71,121.3369 L308.87,125.3369 L343.71,129.3369 L343.71,168.2338 A7.5,7.5 0 0 0 351.21,175.7338 L582.1836,175.7338 A7.5,7.5 0 0 0 589.6836,168.2338 L589.6836,84.9369 L579.6836,74.9369 L351.21,74.9369 A7.5,7.5 0 0 0 343.71,82.4369" fill="#FEFFDD" filter="url(#f16hafwydufvu2)" style="stroke:#181818;stroke-width:0.5;"/><path d="M579.6836,74.9369 L579.6836,81.1869 A3.75,3.75 0 0 0 583.4336,84.9369 L589.6836,84.9369 L579.6836,74.9369" fill="#FEFFDD" style="stroke:#181818;stroke-width:0.5;"/><text fill="#000000" font-family="sans-serif" font-size="13" lengthAdjust="spacing" textLength="203.6646" x="349.71" y="92.0038">A classe Calculadora armazena</text><text fill="#000000" font-family="sans-serif" font-size="13" lengthAdjust="spacing" textLength="224.9736" x="349.71" y="107.1366">dois n&#250;meros e fornece opera&#231;&#245;es</text><text fill="#000000" font-family="sans-serif" font-size="13" lengthAdjust="spacing" textLength="148.3765" x="349.71" y="122.2694">aritm&#233;ticas sobre eles.</text><text fill="#000000" font-family="sans-serif" font-size="13" lengthAdjust="spacing" textLength="4.1323" x="349.71" y="137.4022">&#160;</text><text fill="#000000" font-family="sans-serif" font-size="13" lengthAdjust="spacing" textLength="144.3965" x="349.71" y="152.535">O m&#233;todo dividir trata</text><text fill="#000000" font-family="sans-serif" font-size="13" lengthAdjust="spacing" textLength="107.9292" x="349.71" y="167.6678">divis&#227;o por zero.</text></g><?plantuml-src PL0nJWD13Ept5Iw9W8WWqT15eQ6Yu04dvzQvMEojJrulI04a7i4FA10FeA6zd_0Iza8YNK3QnkEPsV4OMo2uOcmKMmHFi0YO4YNuVdc51OOw1_IYw5owuzXXeK4zKEPcoijiT5rBlEKDmTc8ajP5zS2n0TDCeuLAZhuMZQGmkt1kwpN-21uTm2d4t9BA32vX5GHjX9sFiFAEeQeuibNLqKwpMv_i-RjviYKdQL6F9YEFWkMbAV9VkCt1k0jS_nDulcS_viCJf597RDopSr6CGBbP6yZgeCFvRtLqS2zgYnkAwBnmWjX_3Q4J4Ao6bce2wKYnV-y_AJbKjhR_i18gbLkMIa21qjIv6nXmyR9FLvf7AwvbIlsRG2SAcs8zTHGz325_0000?></g></svg>