<svg xmlns="http://www.w3.org/2000/svg" xmlns:xlink="http://www.w3.org/1999/xlink" contentStyleType="text/css" data-diagram-type="DESCRIPTION" height="743px" preserveAspectRatio="none" style="width:931px;height:743px;background:#FAFAFA;" version="1.1" viewBox="0 0 931 743" width="931px" zoomAndPan="magnify"><?plantuml 1.2026.3beta6?><defs><filter height="300%" id="f1o94nr77q10ru" width="300%" x="-1" y="-1"><feGaussianBlur result="blurOut" stdDeviation="2"/><feColorMatrix in="blurOut" result="blurOut2" type="matrix" values="0 0 0 0 0 0 0 0 0 0 0 0 0 0 0 0 0 0 .4 0"/><feOffset dx="4" dy="4" in="blurOut2" result="blurOut3"/><feBlend in="SourceGraphic" in2="blurOut3" mode="normal"/></filter></defs><g><rect fill="#FAFAFA" height="743" style="stroke:none;stroke-width:1;" width="931" x="0" y="0"/><g class="title" data-source-line="1"><text fill="#000000" font-family="Arial" font-size="14" font-weight="700" lengthAdjust="spacing" textLength="248.7119" x="337.3869" y="22.9951">Paradigma Orientado a Objetos</text></g><!--cluster codigo--><g class="cluster" data-qualified-name="codigo" data-source-line="29" id="ent0006"><rect fill="#EAF3FF" filter="url(#f1o94nr77q10ru)" height="343.48" rx="9" ry="9" style="stroke:#2B5C9E;stroke-width:1;" width="240" x="393.3" y="379.7869"/><text fill="#000000" font-family="Arial" font-size="14" font-weight="700" lengthAdjust="spacing" textLength="218.1279" x="404.236" y="394.782">C&#243;digo Orientado a Objetos</text></g><!--cluster objeto--><g class="cluster" data-qualified-name="codigo.objeto" data-source-line="30" id="ent0007"><rect fill="#DDEEFF" filter="url(#f1o94nr77q10ru)" height="244.48" rx="9" ry="9" style="stroke:#2B5C9E;stroke-width:1;" width="152" x="433.3" y="438.7869"/><text fill="#000000" font-family="Arial" font-size="14" font-weight="700" lengthAdjust="spacing" textLength="52.5273" x="483.0363" y="453.782">Objeto</text></g><!--entity atributos--><g class="entity" data-qualified-name="codigo.objeto.atributos" data-source-line="31" id="ent0008"><rect fill="#EAF3FF" filter="url(#f1o94nr77q10ru)" height="52.5938" rx="9" ry="9" style="stroke:#2B5C9E;stroke-width:0.5;" width="82.8223" x="458.89" y="481.7869"/><text fill="#000000" font-family="Arial" font-size="14" lengthAdjust="spacing" textLength="44.1055" x="468.89" y="504.782">Dados</text><text fill="#000000" font-family="Arial" font-size="14" lengthAdjust="spacing" textLength="62.8223" x="468.89" y="521.0789">atributos</text></g><!--entity metodos--><g class="entity" data-qualified-name="codigo.objeto.metodos" data-source-line="32" id="ent0009"><rect fill="#EAF3FF" filter="url(#f1o94nr77q10ru)" height="52.5938" rx="9" ry="9" style="stroke:#2B5C9E;stroke-width:0.5;" width="95.0244" x="457.79" y="606.6769"/><text fill="#000000" font-family="Arial" font-size="14" lengthAdjust="spacing" textLength="75.0244" x="467.79" y="629.672">Opera&#231;&#245;es</text><text fill="#000000" font-family="Arial" font-size="14" lengthAdjust="spacing" textLength="61.0518" x="467.79" y="645.9689">m&#233;todos</text></g><!--entity poo--><g class="entity" data-qualified-name="poo" data-source-line="21" id="ent0002"><rect fill="#FFF4CC" filter="url(#f1o94nr77q10ru)" height="36.2969" rx="9" ry="9" style="stroke:#2B5C9E;stroke-width:0.5;" width="240.5957" x="7" y="44.2969"/><text fill="#000000" font-family="Arial" font-size="14" lengthAdjust="spacing" textLength="220.5957" x="17" y="67.292">Paradigma Orientado a Objetos</text></g><!--entity foco--><g class="entity" data-qualified-name="foco" data-source-line="23" id="ent0003"><rect fill="#EAF3FF" filter="url(#f1o94nr77q10ru)" height="52.5938" rx="9" ry="9" style="stroke:#2B5C9E;stroke-width:0.5;" width="185.0537" x="34.77" y="141.5969"/><text fill="#000000" font-family="Arial" font-size="14" lengthAdjust="spacing" textLength="37.5977" x="44.77" y="164.592">Foco:</text><text fill="#000000" font-family="Arial" font-size="14" lengthAdjust="spacing" textLength="165.0537" x="44.77" y="180.8889">\"O que deve ser feito\"</text></g><!--entity gap--><g class="entity" data-qualified-name="gap" data-source-line="25" id="ent0004"><rect fill="#EAF3FF" filter="url(#f1o94nr77q10ru)" height="52.5938" rx="9" ry="9" style="stroke:#2B5C9E;stroke-width:0.5;" width="204.0508" x="111.27" y="272.1869"/><text fill="#000000" font-family="Arial" font-size="14" lengthAdjust="spacing" textLength="63.3555" x="121.27" y="295.182">Objetivo:</text><text fill="#000000" font-family="Arial" font-size="14" lengthAdjust="spacing" textLength="184.0508" x="121.27" y="311.4789">Diminuir o Gap Sem&#226;ntico</text></g><!--entity realidade--><g class="entity" data-qualified-name="realidade" data-source-line="27" id="ent0005"><rect fill="#E8F5E9" filter="url(#f1o94nr77q10ru)" height="36.2969" rx="9" ry="9" style="stroke:#2B5C9E;stroke-width:0.5;" width="89.665" x="254.47" y="149.7469"/><text fill="#000000" font-family="Arial" font-size="14" lengthAdjust="spacing" textLength="69.665" x="264.47" y="172.742">Realidade</text></g><!--entity unidades--><g class="entity" data-qualified-name="unidades" data-source-line="36" id="ent0010"><rect fill="#EAF3FF" filter="url(#f1o94nr77q10ru)" height="68.8906" rx="9" ry="9" style="stroke:#2B5C9E;stroke-width:0.5;" width="203.0254" x="657.79" y="598.5269"/><text fill="#000000" font-family="Arial" font-size="14" lengthAdjust="spacing" textLength="138.1611" x="667.79" y="621.522">Unidades de c&#243;digo</text><text fill="#000000" font-family="Arial" font-size="14" lengthAdjust="spacing" textLength="170.5771" x="667.79" y="637.8189">mais pr&#243;ximas da forma</text><text fill="#000000" font-family="Arial" font-size="14" lengthAdjust="spacing" textLength="183.0254" x="667.79" y="654.1157">como pensamos e agimos</text></g><g class="entity" data-qualified-name="GMN17" data-source-line="47" id="ent0018"><path d="M661.1,487.6369 L661.1,528.5275 A9,9 0 0 0 670.1,537.5275 L906.4857,537.5275 A9,9 0 0 0 915.4857,528.5275 L915.4857,488.6369 L905.4857,478.6369 L670.1,478.6369 A9,9 0 0 0 661.1,487.6369" fill="#FFF4CC" filter="url(#f1o94nr77q10ru)" style="stroke:#C9A227;stroke-width:0.5;"/><path d="M905.4857,478.6369 L905.4857,484.1369 A4.5,4.5 0 0 0 909.9857,488.6369 L915.4857,488.6369 L905.4857,478.6369" fill="#FFF4CC" style="stroke:#C9A227;stroke-width:1;"/><text fill="#000000" font-family="Arial" font-size="14" lengthAdjust="spacing" textLength="51.1807" x="667.1" y="496.632">Objeto:</text><text fill="#000000" font-family="Arial" font-size="14" lengthAdjust="spacing" textLength="233.3857" x="667.1" y="512.9289">agrupa dados e comportamentos</text><text fill="#000000" font-family="Arial" font-size="14" lengthAdjust="spacing" textLength="179.5049" x="667.1" y="529.2257">em uma mesma unidade.</text></g><g class="entity" data-qualified-name="GMN20" data-source-line="53" id="ent0021"><path d="M17.08,495.7869 L17.08,520.3806 A9,9 0 0 0 26.08,529.3806 L360.5136,529.3806 A9,9 0 0 0 369.5136,520.3806 L369.5136,496.7869 L359.5136,486.7869 L199.29,486.7869 L210.85,324.9369 L191.29,486.7869 L26.08,486.7869 A9,9 0 0 0 17.08,495.7869" fill="#FFF4CC" filter="url(#f1o94nr77q10ru)" style="stroke:#C9A227;stroke-width:0.5;"/><path d="M359.5136,486.7869 L359.5136,492.2869 A4.5,4.5 0 0 0 364.0136,496.7869 L369.5136,496.7869 L359.5136,486.7869" fill="#FFF4CC" style="stroke:#C9A227;stroke-width:0.5;"/><text fill="#000000" font-family="Arial" font-size="14" lengthAdjust="spacing" textLength="289.8779" x="23.08" y="504.782">A orienta&#231;&#227;o a objetos busca representar</text><text fill="#000000" font-family="Arial" font-size="14" lengthAdjust="spacing" textLength="331.4336" x="23.08" y="521.0789">entidades do mundo real de forma mais direta.</text></g><!--link poo to foco--><g class="link" data-entity-1="ent0002" data-entity-2="ent0003" data-link-type="dependency" data-source-line="38" id="lnk11"><path d="M127.3,80.9969 C127.3,97.5969 127.3,116.6969 127.3,135.4869" fill="none" id="poo-to-foco" style="stroke:#181818;stroke-width:1;"/><polygon fill="#181818" points="127.3,141.4869,131.3,132.4869,127.3,136.4869,123.3,132.4869,127.3,141.4869" style="stroke:#181818;stroke-width:1;"/></g><!--link foco to gap--><g class="link" data-entity-1="ent0003" data-entity-2="ent0004" data-link-type="dependency" data-source-line="39" id="lnk12"><path d="M144.49,194.6069 C159.49,217.0369 177.8051,244.409 192.7951,266.829" fill="none" id="foco-to-gap" style="stroke:#181818;stroke-width:1;"/><polygon fill="#181818" points="196.13,271.8169,194.4529,262.1119,193.3509,267.6603,187.8025,266.5584,196.13,271.8169" style="stroke:#181818;stroke-width:1;"/></g><!--link realidade to gap--><g class="link" data-entity-1="ent0005" data-entity-2="ent0004" data-link-type="dependency" data-source-line="40" id="lnk13"><path d="M287.52,186.5069 C272.71,208.6469 250.505,241.8491 233.595,267.1391" fill="none" id="realidade-to-gap" style="stroke:#181818;stroke-width:1;"/><polygon fill="#181818" points="230.26,272.1269,238.5877,266.8686,233.0392,267.9704,231.9374,262.4219,230.26,272.1269" style="stroke:#181818;stroke-width:1;"/><text fill="#000000" font-family="Arial" font-size="14" lengthAdjust="spacing" textLength="91.0205" x="263.3" y="238.182">aproxima&#231;&#227;o</text></g><!--link gap to codigo--><g class="link" data-entity-1="ent0004" data-entity-2="ent0006" data-link-type="dependency" data-source-line="41" id="lnk14"><path d="M315.77,304.1869 C414.44,310.8769 554.29,326.7569 593.3,363.7869 C596.2119,366.5506 598.8866,369.5167 601.3422,372.6497 C602.5701,374.2162 603.7431,375.8244 604.8637,377.47 C605.1439,377.8814 605.4207,378.2951 605.6944,378.7111 C605.8312,378.9191 602.7097,374.0889 602.8448,374.298" fill="none" id="gap-to-codigo" style="stroke:#181818;stroke-width:1;"/><polygon fill="#181818" points="606.1024,379.3368,604.5752,369.607,603.3878,375.1378,597.8569,373.9504,606.1024,379.3368" style="stroke:#181818;stroke-width:1;"/></g><!--link codigo to unidades--><g class="link" data-entity-1="ent0006" data-entity-2="ent0010" data-link-type="dependency" data-source-line="42" id="lnk15"><path d="M633.3345,523.765 C633.3928,523.8595 633.4513,523.9541 633.51,524.0488 C634.4499,525.5648 635.4502,527.116 636.4997,528.6611 C638.5988,531.7513 640.895,534.8169 643.3,537.5269 C663.21,559.9569 683.9814,577.7485 706.0414,594.4985" fill="none" id="codigo-to-unidades" style="stroke:#181818;stroke-width:1;"/><polygon fill="#181818" points="710.82,598.1269,706.071,589.4986,706.8378,595.1032,701.2332,595.8701,710.82,598.1269" style="stroke:#181818;stroke-width:1;"/></g><!--link atributos to metodos--><!--link objeto to GMN17--><g class="link" data-entity-1="ent0007" data-entity-2="ent0018" data-link-type="association" data-source-line="47" id="lnk19"><path d="M569.5996,438.6246 C569.5974,438.3921 569.5955,438.1593 569.5938,437.9264 C569.5802,436.0625 569.5836,434.1833 569.6054,432.2915 C569.693,424.7243 570.0774,416.9565 570.8658,409.1739 C572.4425,393.6088 575.635,377.9844 581.3,363.7869 C585.61,352.9669 588.16,349.0269 598.8,344.2869 C676.04,309.8169 745.3,422.2769 774.12,478.2969" fill="none" id="objeto-GMN17" style="stroke:#181818;stroke-width:1;stroke-dasharray:7,7;"/></g><?plantuml-src VLF1RXCn4BtxAqRfkKWDhMXxG4etMMuKKN4Y72RhoTOqzYosjo1GVmOEY7FLByYFCVPkaar4qKehss_UcvatTZHnHV0EFMfJMuHhRyX5r0ooNdoco46fS6TS8o4M5bZTrPvRfmjUiOUZSfA-GKG6A_QEF9oS3u1mAwfVZQiX-fO6WAObjgjOiejlqH9ClC7Ll_4RyvtWv7HOaQSgegkbYHyAuEgmljcaV5cM2M6loVUduwkpucAc7eP2ZkCp6cLPdXR5eKPnCHcFNoMDo0r4XWN7o5AkIIKPTahjQXlzr-4HO826UPjgo2ovuikvcu-kuKjBuiOzGH1pbsGYpqUPkvIOFL8MDlU9E3NMkDPuO7Y33ToGNVzqqLIScJKsUyJtX2kZKLD6_MOdHfwNPxEBlTXY_IWjyRCTLPpXvEbXQLropaiucavdixBCWNkXKz4CSuVHcqMxKTtk3gEl6_Au_hr-8k7OzP_8kgTOociXFAHv3JWVN6ulYArGTUq85usCmwyVlnahR8tYhxSuTnLRXePSGCi12B0sja_Hza9AfJaU7x_kPf9-UPTythdPdy0bOECvfP6wVx5APmdhd5EzWUbafx_j7uu_tXgjoNqIVDEYojVOc_es0YzxXrNd-QN2shSDIaSwro_zDEoZF3gN_2GBhLnGIq7-VS8NYfpERwENxc-vQAUM9i3Ty7FzClykOO156ogKwJIUGiAzwCIDrmnMNXVdwvMSp_P2jZszdeYxh7y1?></g></svg>